<?xml version="1.0" encoding="UTF-8"?>
<svg id="light" xmlns="http://www.w3.org/2000/svg" xmlns:xlink="http://www.w3.org/1999/xlink" viewBox="0 0 2048 2048">
  <defs>
    <style>
      .cls-1 {
        stroke-width: 32.76px;
      }

      .cls-1, .cls-2 {
        fill: none;
        stroke: #000;
        stroke-miterlimit: 10;
      }

      .cls-3 {
        fill: url(#linear-gradient-2);
      }

      .cls-2 {
        stroke-linecap: round;
        stroke-width: 28.4px;
      }

      .cls-4 {
        fill: url(#linear-gradient);
      }
    </style>
    <linearGradient id="linear-gradient" x1="88.17" y1="1959.83" x2="1959.83" y2="88.17" gradientUnits="userSpaceOnUse">
      <stop offset="0" stop-color="#f2f2f2"/>
      <stop offset="1" stop-color="#fff"/>
    </linearGradient>
    <linearGradient id="linear-gradient-2" x1="399.23" y1="1513.47" x2="1003.59" y2="909.11" gradientUnits="userSpaceOnUse">
      <stop offset="0" stop-color="#000"/>
      <stop offset=".46" stop-color="#080808"/>
      <stop offset="1" stop-color="#1a1a1a"/>
    </linearGradient>
  </defs>
  <g id="bg-2" data-name="bg">
    <rect class="cls-4" x=".37" y=".37" width="2047.26" height="2047.26" rx="299.78" ry="299.78"/>
  </g>
  <g id="shapes-2" data-name="shapes">
    <path class="cls-1" d="M1687.24,1468.17l-935.04,201c-36.06,7.74-71.58-15.2-79.32-51.27l-39.07-181.73h875.85c36.88,0,66.78-29.9,66.78-66.78v-734.42l162.05,753.87c7.75,36.06-15.2,71.58-51.25,79.33Z"/>
    <path class="cls-3" d="M1509.66,1436.17h-956.39c-36.88,0-66.78-29.9-66.78-66.78V499.55l-119.36,16.37c-37.43,5.13-63.61,39.63-58.47,77.06l128.75,938.96c5.13,37.43,39.63,63.62,77.06,58.48l970.56-133.09c17.5-2.4,32.54-11.22,43.05-23.75-5.84,1.68-12.02,2.58-18.41,2.58ZM431.42,835.13c-8.28,1.12-15.91-4.66-17.05-12.93l-30.2-220.22c-1.14-8.28,4.66-15.91,12.93-17.05.69-.1,1.38-.14,2.06-.14,7.45,0,13.95,5.49,14.98,13.08l30.2,220.21c1.14,8.28-4.66,15.91-12.93,17.05Z"/>
    <path class="cls-1" d="M1576.44,444.12v925.27c0,30.49-20.45,56.22-48.37,64.21-5.84,1.68-12.02,2.58-18.41,2.58h-956.39c-36.88,0-66.78-29.9-66.78-66.78V444.12c0-36.88,29.9-66.78,66.78-66.78h956.39c36.88,0,66.78,29.9,66.78,66.78Z"/>
    <g>
      <line class="cls-2" x1="1424.08" y1="693.51" x2="639.92" y2="693.51"/>
      <g>
        <line class="cls-2" x1="1424.63" y1="870.44" x2="928.8" y2="870.44"/>
        <line class="cls-2" x1="838.15" y1="870.44" x2="640.47" y2="870.44"/>
      </g>
      <g>
        <line class="cls-2" x1="1424.63" y1="1224.29" x2="928.8" y2="1224.29"/>
        <line class="cls-2" x1="838.15" y1="1224.29" x2="640.47" y2="1224.29"/>
      </g>
      <g>
        <line class="cls-2" x1="640.47" y1="1047.36" x2="1136.3" y2="1047.36"/>
        <line class="cls-2" x1="1226.95" y1="1047.36" x2="1424.63" y2="1047.36"/>
      </g>
    </g>
  </g>
</svg>